<svg xmlns="http://www.w3.org/2000/svg" viewBox="0 0 2500 2500">
  <circle fill="#26A17B" cx="1250" cy="1250" r="1250"/>
  <path fill="#FFF" d="M1373.1 1063.4v-173.3H1780V625H720v265.1h406.8v173.3c-329.1 15.3-576.5 77.1-576.5 152.4s247.4 137 576.5 152.3v574.8h246.3v-574.8c329.1-15.3 576.5-77 576.5-152.3s-247.4-137.1-576.5-152.4zM1373.1 1248.1v-.6c-8.6.5-53 3.2-153 3.2-79.6 0-135.3-2.3-153.3-3.2v.6c-301.5-13.6-527.1-66.1-527.1-129.4s225.6-115.8 527.1-129.3v205.2c18 1.3 72.7 4.6 153.3 4.6 100.2 0 144.4-3 153-3.6v-205.2c301.5 13.6 527.1 66 527.1 129.3s-225.6 115.8-527.1 129.4z"/>
</svg>
